<svg width="30" height="30" viewBox="0 0 30 30" fill="none" xmlns="http://www.w3.org/2000/svg">
<path d="M14.9998 4.5C15.9101 4.5 16.7805 4.68797 17.572 5.02832C17.0487 5.80653 16.7241 6.72984 16.6736 7.72559L16.6668 8L16.6736 8.27441C16.8134 11.032 19.0476 13.2358 21.8172 13.3291C21.8288 13.4263 21.8367 13.5046 21.8484 13.582C21.9888 14.5065 22.2904 15.3993 22.739 16.2197C22.8158 16.3601 22.8988 16.4991 23.0652 16.7764L23.74 17.9004C24.4923 19.1541 24.8681 19.7808 24.6345 20.2666C24.6153 20.3066 24.5935 20.3457 24.5691 20.3828C24.2728 20.8332 23.5414 20.833 22.0789 20.833H7.92067C6.45822 20.833 5.72671 20.8333 5.43044 20.3828C5.40607 20.3457 5.38425 20.3066 5.36501 20.2666C5.13156 19.7808 5.50826 19.1541 6.26052 17.9004L6.93434 16.7764C7.10063 16.4992 7.18377 16.3601 7.26052 16.2197C7.70913 15.3993 8.01079 14.5065 8.15114 13.582C8.17516 13.4238 8.19257 13.2629 8.22829 12.9414L8.52223 10.2979C8.88896 6.99731 11.6789 4.50011 14.9998 4.5ZM19.9871 6.82227C20.7869 7.77197 21.3219 8.95687 21.4734 10.2705C20.4388 10.0315 19.6669 9.1072 19.6668 8C19.6668 7.57022 19.7843 7.16805 19.9871 6.82227Z" fill="white"/>
<path d="M11.5 20.8334C11.5 21.293 11.5905 21.7481 11.7664 22.1728C11.9423 22.5974 12.2001 22.9832 12.5251 23.3082C12.8501 23.6333 13.236 23.8911 13.6606 24.067C14.0852 24.2428 14.5404 24.3334 15 24.3334C15.4596 24.3334 15.9148 24.2428 16.3394 24.067C16.764 23.8911 17.1499 23.6333 17.4749 23.3082C17.7999 22.9832 18.0577 22.5974 18.2336 22.1728C18.4095 21.7481 18.5 21.293 18.5 20.8334L15 20.8334H11.5Z" fill="white"/>
<circle cx="22" cy="7.99996" r="2.83333" fill="#FF0000" stroke="#FF0000"/>
<rect width="30" height="30" rx="8" fill="white" fill-opacity="0.15"/>
</svg>
