<svg width="50" height="50" viewBox="0 0 50 50" fill="none" xmlns="http://www.w3.org/2000/svg">
<path d="M25 6.25C29.8706 6.25 34.307 8.10759 37.6406 11.1523L22.5889 27.8789L16.084 23C14.9795 22.1717 13.4125 22.3958 12.584 23.5C11.7556 24.6046 11.9794 26.1716 13.084 27L20.6855 32.7021C22.135 33.7887 24.1747 33.5896 25.3867 32.2432L40.8799 15.0283C42.6975 17.9168 43.75 21.3352 43.75 25C43.75 35.3553 35.3553 43.75 25 43.75C14.6447 43.75 6.25 35.3553 6.25 25C6.25 14.6447 14.6447 6.25 25 6.25Z" fill="white"/>
</svg>
