<?xml version="1.0" encoding="UTF-8"?>
<!DOCTYPE svg PUBLIC "-//W3C//DTD SVG 1.1//EN" "http://www.w3.org/Graphics/SVG/1.1/DTD/svg11.dtd">
<svg xmlns="http://www.w3.org/2000/svg" version="1.1" width="30px" height="30px" style="shape-rendering:geometricPrecision; text-rendering:geometricPrecision; image-rendering:optimizeQuality; fill-rule:evenodd; clip-rule:evenodd" xmlns:xlink="http://www.w3.org/1999/xlink">
<g><path style="opacity:0.832" fill="#8a8a8a" d="M 7.5,1.5 C 9.17649,2.18342 9.84316,3.51676 9.5,5.5C 12.8333,5.5 16.1667,5.5 19.5,5.5C 19.238,4.02218 19.5713,2.68884 20.5,1.5C 22.1112,2.32025 22.7778,3.65358 22.5,5.5C 24.3904,5.2965 25.8904,5.96317 27,7.5C 27.6667,13.1667 27.6667,18.8333 27,24.5C 26.5,25.6667 25.6667,26.5 24.5,27C 17.8333,27.6667 11.1667,27.6667 4.5,27C 3.33333,26.5 2.5,25.6667 2,24.5C 1.33333,18.8333 1.33333,13.1667 2,7.5C 3.10963,5.96317 4.60963,5.2965 6.5,5.5C 6.43255,4.04125 6.76589,2.70792 7.5,1.5 Z M 4.5,12.5 C 11.1667,12.5 17.8333,12.5 24.5,12.5C 24.5,16.5 24.5,20.5 24.5,24.5C 17.8333,24.5 11.1667,24.5 4.5,24.5C 4.5,20.5 4.5,16.5 4.5,12.5 Z"/></g>
<g><path style="opacity:0.741" fill="#8a8a8a" d="M 7.5,14.5 C 9.5,14.5 11.5,14.5 13.5,14.5C 13.5,15.5 13.5,16.5 13.5,17.5C 11.5,17.5 9.5,17.5 7.5,17.5C 7.5,16.5 7.5,15.5 7.5,14.5 Z"/></g>
<g><path style="opacity:0.368" fill="#898989" d="M 15.5,14.5 C 17.5,14.5 19.5,14.5 21.5,14.5C 21.5,15.5 21.5,16.5 21.5,17.5C 19.5,17.5 17.5,17.5 15.5,17.5C 15.5,16.5 15.5,15.5 15.5,14.5 Z"/></g>
<g><path style="opacity:0.741" fill="#8a8a8a" d="M 7.5,19.5 C 9.5,19.5 11.5,19.5 13.5,19.5C 13.5,20.5 13.5,21.5 13.5,22.5C 11.5,22.5 9.5,22.5 7.5,22.5C 7.5,21.5 7.5,20.5 7.5,19.5 Z"/></g>
<g><path style="opacity:0.368" fill="#898989" d="M 15.5,19.5 C 17.5,19.5 19.5,19.5 21.5,19.5C 21.5,20.5 21.5,21.5 21.5,22.5C 19.5,22.5 17.5,22.5 15.5,22.5C 15.5,21.5 15.5,20.5 15.5,19.5 Z"/></g>
</svg>
