<svg width="18" height="20" viewBox="0 0 18 20" fill="none" xmlns="http://www.w3.org/2000/svg">
<path d="M8.78516 0.00866699C13.6369 0.00887057 17.5702 3.94207 17.5703 8.79382C17.5703 15.2064 10.9047 19.018 9.18555 19.8944C8.93185 20.0237 8.63849 20.0236 8.38477 19.8944C6.66608 19.0184 0 15.2068 0 8.79382C0.000104349 3.94194 3.93325 0.00866699 8.78516 0.00866699ZM8.78516 5.02917C6.70582 5.02917 5.01965 6.71451 5.01953 8.79382C5.01953 10.8732 6.70574 12.5594 8.78516 12.5594C10.8644 12.5592 12.5498 10.8731 12.5498 8.79382C12.5497 6.71464 10.8643 5.02938 8.78516 5.02917Z" fill="white"/>
</svg>
